<?xml version="1.0" encoding="UTF-8" standalone="no"?>
<!DOCTYPE svg PUBLIC "-//W3C//DTD SVG 1.1//EN" "http://www.w3.org/Graphics/SVG/1.1/DTD/svg11.dtd">
<svg version="1.1" xmlns="http://www.w3.org/2000/svg" xmlns:xlink="http://www.w3.org/1999/xlink" preserveAspectRatio="xMidYMid meet" viewBox="0 0 581 581" width="581" height="581"><defs><path d="M581 290.59C581 450.92 450.83 581.09 290.5 581.09C130.17 581.09 0 450.92 0 290.59C0 130.26 130.17 0.09 290.5 0.09C450.83 0.09 581 130.26 581 290.59Z" id="a1IaBM943P"></path><linearGradient id="gradientbpa2KJf4D" gradientUnits="userSpaceOnUse" x1="290.5" y1="0.09" x2="290.5" y2="581.09"><stop style="stop-color: #15151d;stop-opacity: 1" offset="0%"></stop><stop style="stop-color: #323844;stop-opacity: 1" offset="100%"></stop></linearGradient><path d="M364.31 159.06C405.08 159.06 438.11 198.75 438.11 247.7C438.12 383.27 290.5 450.55 290.5 454.28C290.5 454.28 290.5 454.28 290.5 454.28C290.5 450.55 142.89 383.27 142.89 247.69C142.89 198.74 175.93 159.05 216.69 159.05C257.46 159.05 290.5 193.82 290.5 242.78C290.5 193.83 323.54 159.06 364.31 159.06Z" id="c19f2wxIdn"></path></defs><g><g><g><use xlink:href="#a1IaBM943P" opacity="1" fill="url(#gradientbpa2KJf4D)"></use></g><g><use xlink:href="#c19f2wxIdn" opacity="1" fill="#f1f9ff" fill-opacity="1"></use></g></g></g></svg>